<svg height="128.54977mm" viewBox="0 0 128.54926 128.54977" width="128.54926mm" xmlns="http://www.w3.org/2000/svg"><g fill="#fff" transform="translate(-38.383704 -38.785747)"><path d="m388 146.5918a242.92773 242.92871 0 0 0 -242.92773 242.92773 242.92773 242.92871 0 0 0 242.92773 242.92969 242.92773 242.92871 0 0 0 242.92773-242.92969 242.92773 242.92871 0 0 0 -242.92773-242.92773zm0 10a232.92773 232.92871 0 0 1 232.92773 232.92773 232.92773 232.92871 0 0 1 -232.92773 232.92969 232.92773 232.92871 0 0 1 -232.92773-232.92969 232.92773 232.92871 0 0 1 232.92773-232.92773z" stroke-width="1.129899" transform="scale(.26458333)"/><path d="m102.65833 40.051097a63.008755 63.00902 0 0 0 -63.008753 63.009283 63.008755 63.00902 0 0 0 63.008753 63.00876 63.008755 63.00902 0 0 0 63.00876-63.00876 63.008755 63.00902 0 0 0 -63.00876-63.009283zm-39.513148 32.79431h79.026298a4.3907643 6.0435574 0 1 1 0 12.086202h-79.026298a4.3907643 6.0435574 0 1 1 0-12.086202zm0 24.171874h79.026298a4.3907643 6.0435574 0 1 1 0 12.086199h-79.026298a4.3907643 6.0435574 0 1 1 0-12.086199zm-.594905 24.171869h53.247233a3.8037628 6.0435574 0 1 1 0 12.08621h-53.247233a3.8037628 6.0435574 0 1 1 0-12.08621z" stroke-width=".293065"/></g></svg>